<svg width="54" height="54" viewBox="0 0 54 54" fill="none" xmlns="http://www.w3.org/2000/svg">
<path d="M34.3021 26.8624C35.0274 28.2119 35.2815 29.6286 35.7518 31.1056C36.315 29.8305 36.833 28.6581 37.3741 27.4353C38.0028 28.4501 38.2517 29.5312 38.3322 30.646C38.4279 31.9743 38.3544 33.2989 38.0196 34.5988C37.9302 34.9477 38.001 35.2186 38.3234 35.4382C38.8591 35.8039 39.3639 36.2121 39.8536 36.6398C40.3354 37.0604 40.7091 37.5643 40.8525 38.1744C41.1332 39.3715 41.9152 40.1339 42.8822 40.7936C44.3575 41.8004 45.8417 42.785 47.4463 43.5811C48.2398 43.9751 48.2707 44.1681 47.8634 44.9642C47.4392 45.7939 46.9911 46.6014 46.3128 47.262C45.4042 48.1466 44.3274 48.6194 43.0566 48.6336C41.8 48.6478 40.555 48.4822 39.3063 48.3866C38.5244 48.3263 37.7389 48.2635 36.9641 48.3547C35.6127 48.5132 34.7582 49.326 34.2941 50.5746C33.924 51.5716 33.6495 52.597 33.4298 53.6365C33.3732 53.9039 33.2607 53.9987 32.988 53.9987C28.6647 53.9916 24.3406 54.0022 20.0173 53.9872C18.7917 53.9828 17.9894 53.0681 17.9859 51.7328C17.9806 49.2543 17.985 46.775 17.985 44.2965C17.985 41.6552 17.9806 39.0147 17.993 36.3733C17.9947 36.082 17.9363 36.0023 17.6308 36.0032C12.5548 36.0147 7.47885 36.012 2.40289 36.0111C0.766393 36.0103 0.000393577 35.2355 0.000393577 33.5885C0.000393577 29.1469 -0.000491971 24.7063 0.000393577 20.2647C0.000393577 18.7833 0.813327 17.9687 2.30459 17.9678C7.01217 17.9651 11.7189 17.9722 16.4264 17.9572C16.8719 17.9554 17.0321 18.067 17.1296 18.5292C17.3235 19.4527 17.7663 20.3019 18.1701 21.1502C18.4676 21.7753 19.0902 22.0498 19.7375 22.2004C20.2378 22.3164 20.7506 22.3908 21.2624 22.4501C22.7634 22.6236 23.362 23.2532 23.486 24.7505C23.61 26.2532 23.3009 27.6832 22.8387 29.0947C22.3614 30.5513 21.807 31.984 21.4085 33.4663C20.9365 35.2257 21.2164 36.8639 22.1329 38.4418C22.5969 39.2405 23.1947 39.9241 23.7269 40.6634C23.8765 40.8706 23.9713 40.868 24.1272 40.6909C25.5494 39.0767 27.2186 37.6953 28.5301 35.9722C29.1208 35.1965 29.8567 34.5386 30.7024 34.0427C31.2576 33.7169 31.5976 33.2724 31.8359 32.6897C32.5682 30.9019 33.3254 29.1257 34.0754 27.345C34.1312 27.2122 34.1976 27.0829 34.3021 26.8624Z" fill="#F3E5DD"/>
<path d="M51.7961 17.982C46.7069 17.9847 41.6168 17.9794 36.5275 17.998C36.0936 17.9997 35.9979 17.882 35.9997 17.4614C36.0157 12.3725 36.0112 7.28282 36.0121 2.19399C36.0121 0.840095 35.185 0.00154958 33.8443 0.000664107C29.2855 -0.000221369 24.7276 -0.000221369 20.1688 0.000664107C18.828 0.000664107 18.0009 0.840095 18.0018 2.19399C18.0027 6.84097 18.0036 11.4871 18.0045 16.134C18.0045 16.3324 18.0045 16.5307 18.0045 16.7229C18.1798 16.7335 18.2374 16.6326 18.3135 16.5715C19.2841 15.7958 20.1829 14.9626 20.8754 13.9071C21.4466 13.0358 22.1621 12.2875 23.2363 12.0166C23.548 11.9493 23.8172 11.8218 23.9651 11.5154C24.2901 10.9832 24.3096 10.4112 24.2007 9.81528C24.1139 9.33889 24.0528 8.85808 23.9811 8.37904C24.0023 8.2958 24.0032 8.21611 23.9403 8.14704C23.9253 8.10365 23.9111 8.05938 23.896 8.01511C23.8349 7.82207 23.7738 7.62992 23.7118 7.43689C23.7703 7.18187 24.0023 7.14911 24.1918 7.06322C24.4159 7.14557 24.6408 7.22792 24.8648 7.31115C24.9109 7.35011 24.9578 7.38996 25.0047 7.42892C25.2102 7.63612 25.4156 7.84332 25.6211 8.05053C25.6884 8.13553 25.7548 8.22142 25.8221 8.30643C26.0594 8.59686 26.2631 8.91829 26.5801 9.13612C26.635 9.19279 26.6899 9.24946 26.7449 9.30613C26.9043 9.57354 27.1079 9.85424 27.4258 9.82856C27.6198 9.81262 27.719 9.53281 27.6968 9.29196C27.7012 9.27602 27.7057 9.2592 27.7083 9.24238C27.873 8.97408 27.8544 8.68187 27.7969 8.39586C27.7039 7.93364 27.6933 7.46965 27.7039 7.00212C27.9288 6.73205 28.1228 6.92243 28.307 7.05525C28.624 7.2837 28.7896 7.64498 29.0446 7.92922C29.1252 8.12579 29.1996 8.32591 29.3652 8.47201C29.4475 8.77662 29.6061 9.04669 29.7575 9.32118L29.7531 9.35306L29.7787 9.37254C29.7929 9.39025 29.808 9.40619 29.8257 9.42036C29.8567 9.65324 29.978 9.84981 30.0781 10.0552C30.311 10.4909 30.6103 10.8681 31.0663 11.0859C32.4 11.7235 33.2209 12.8126 33.7779 14.1382C34.5483 15.9711 34.9052 17.8846 34.8538 19.8699C34.8379 20.4729 34.9397 21.0396 35.1762 21.5895C35.634 22.6547 36.2964 23.5897 37.011 24.4912C37.1616 24.6674 37.3112 24.8445 37.4618 25.0207C37.785 25.4094 38.0285 25.8725 38.5005 26.1213L38.5058 26.108C38.5545 26.5083 38.9504 26.6437 39.1381 26.9377C39.5304 27.338 39.9218 27.7373 40.3141 28.1367C43.0177 30.8577 45.9294 33.3477 48.8499 35.8288C49.0146 35.9687 49.1829 35.9899 49.3786 35.9899C50.2048 35.9882 51.031 35.9988 51.8572 35.9944C53.1661 35.9873 53.9994 35.1381 53.9994 33.8179C54.0003 29.2745 54.0003 24.7311 53.9994 20.1877C53.9976 18.8144 53.1616 17.9811 51.7961 17.982Z" fill="#F3E5DD"/>
</svg>
