<svg width="42" height="42" viewBox="0 0 42 42" fill="none" xmlns="http://www.w3.org/2000/svg">
<path d="M4.33335 0.166668H37.6667C38.7718 0.166668 39.8316 0.605655 40.613 1.38706C41.3944 2.16846 41.8334 3.22827 41.8334 4.33333V29.3333C41.8334 30.4384 41.3944 31.4982 40.613 32.2796C39.8316 33.061 38.7718 33.5 37.6667 33.5H29.3334L21 41.8333L12.6667 33.5H4.33335C3.22829 33.5 2.16848 33.061 1.38708 32.2796C0.605674 31.4982 0.166687 30.4384 0.166687 29.3333V4.33333C0.166687 3.22827 0.605674 2.16846 1.38708 1.38706C2.16848 0.605655 3.22829 0.166668 4.33335 0.166668ZM35.5834 27.25V10.5833L27.25 18.9167L23.0834 14.75L10.5834 27.25H35.5834ZM10.5834 6.41667C9.47829 6.41667 8.41848 6.85566 7.63708 7.63706C6.85567 8.41846 6.41669 9.47827 6.41669 10.5833C6.41669 11.6884 6.85567 12.7482 7.63708 13.5296C8.41848 14.311 9.47829 14.75 10.5834 14.75C11.6884 14.75 12.7482 14.311 13.5296 13.5296C14.311 12.7482 14.75 11.6884 14.75 10.5833C14.75 9.47827 14.311 8.41846 13.5296 7.63706C12.7482 6.85566 11.6884 6.41667 10.5834 6.41667Z" fill="black"/>
</svg>
