<svg width="34" height="42" viewBox="0 0 34 42" fill="none" xmlns="http://www.w3.org/2000/svg">
<path d="M21.1666 0.166664H4.49998C3.39491 0.166664 2.3351 0.605651 1.5537 1.38705C0.7723 2.16845 0.333313 3.22826 0.333313 4.33333V37.6667C0.333313 38.7717 0.7723 39.8315 1.5537 40.6129C2.3351 41.3943 3.39491 41.8333 4.49998 41.8333H29.5C30.605 41.8333 31.6649 41.3943 32.4463 40.6129C33.2277 39.8315 33.6666 38.7717 33.6666 37.6667V12.6667L21.1666 0.166664ZM20.125 29.3333V35.5833H13.875V29.3333H8.66665L17 21L25.3333 29.3333H20.125ZM19.0833 14.75V3.29166L30.5416 14.75H19.0833Z" fill="black"/>
</svg>
